<svg width="1144" height="218" viewBox="0 0 1144 218" fill="none" xmlns="http://www.w3.org/2000/svg">
<path d="M9.20732 109C9.20732 104.925 12.5051 101.622 16.5732 101.622H75.5C79.568 101.622 82.8659 104.925 82.8659 109C82.8659 113.075 79.568 116.378 75.5 116.378H16.5732C12.5051 116.378 9.20732 113.075 9.20732 109Z" fill="#F97316"/>
<path d="M68.1341 109C68.1341 104.925 71.432 101.622 75.5 101.622H134.427C138.495 101.622 141.793 104.925 141.793 109C141.793 113.075 138.495 116.378 134.427 116.378H75.5C71.432 116.378 68.1341 113.075 68.1341 109Z" fill="#F97316"/>
<path d="M75.5 116.378C71.432 116.378 68.1341 113.075 68.1341 109V49.9778C68.1341 45.9031 71.432 42.6 75.5 42.6C79.568 42.6 82.8659 45.9031 82.8659 49.9778V109C82.8659 113.075 79.568 116.378 75.5 116.378Z" fill="#F97316"/>
<path d="M75.5 175.4C71.432 175.4 68.1341 172.097 68.1341 168.022V109C68.1341 104.925 71.432 101.622 75.5 101.622C79.568 101.622 82.8659 104.925 82.8659 109V168.022C82.8659 172.097 79.568 175.4 75.5 175.4Z" fill="#F97316"/>
<path d="M16.5732 175.4C12.5051 175.4 9.20732 172.097 9.20732 168.022V109C9.20732 104.925 12.5051 101.622 16.5732 101.622C20.6412 101.622 23.939 104.925 23.939 109V168.022C23.939 172.097 20.6412 175.4 16.5732 175.4Z" fill="#F97316"/>
<path d="M16.5732 116.378C12.5051 116.378 9.20732 113.075 9.20732 109V49.9778C9.20732 45.9031 12.5051 42.6 16.5732 42.6C20.6412 42.6 23.939 45.9031 23.939 49.9778V109C23.939 113.075 20.6412 116.378 16.5732 116.378Z" fill="#F97316"/>
<path d="M134.427 116.378C130.359 116.378 127.061 113.075 127.061 109V49.9778C127.061 45.9031 130.359 42.6 134.427 42.6C138.495 42.6 141.793 45.9031 141.793 49.9778V109C141.793 113.075 138.495 116.378 134.427 116.378Z" fill="#F97316"/>
<path d="M33.1463 175.4C33.1463 184.568 25.7263 192 16.5732 192C7.42006 192 0 184.568 0 175.4C0 166.232 7.42006 158.8 16.5732 158.8C25.7263 158.8 33.1463 166.232 33.1463 175.4Z" fill="#F97316"/>
<path d="M33.1463 42.6C33.1463 51.7679 25.7263 59.2 16.5732 59.2C7.42006 59.2 0 51.7679 0 42.6C0 33.4321 7.42006 26 16.5732 26C25.7263 26 33.1463 33.4321 33.1463 42.6Z" fill="#F97316"/>
<path d="M92.0732 42.6C92.0732 51.7679 84.6531 59.2 75.5 59.2C66.3469 59.2 58.9268 51.7679 58.9268 42.6C58.9268 33.4321 66.3469 26 75.5 26C84.6531 26 92.0732 33.4321 92.0732 42.6Z" fill="#F97316"/>
<path d="M151 42.6C151 51.7679 143.58 59.2 134.427 59.2C125.274 59.2 117.854 51.7679 117.854 42.6C117.854 33.4321 125.274 26 134.427 26C143.58 26 151 33.4321 151 42.6Z" fill="#F97316"/>
<path d="M92.0732 175.4C92.0732 184.568 84.6531 192 75.5 192C66.3469 192 58.9268 184.568 58.9268 175.4C58.9268 166.232 66.3469 158.8 75.5 158.8C84.6531 158.8 92.0732 166.232 92.0732 175.4Z" fill="#F97316"/>
<path d="M307.882 88.9219H279.885C279.374 85.2997 278.33 82.0824 276.753 79.2699C275.176 76.4148 273.152 73.9858 270.68 71.983C268.209 69.9801 265.354 68.446 262.115 67.3807C258.919 66.3153 255.446 65.7827 251.696 65.7827C244.92 65.7827 239.018 67.4659 233.99 70.8324C228.962 74.1562 225.063 79.0142 222.293 85.4062C219.523 91.7557 218.138 99.4687 218.138 108.545C218.138 117.878 219.523 125.719 222.293 132.068C225.105 138.418 229.026 143.212 234.054 146.45C239.082 149.689 244.899 151.308 251.504 151.308C255.212 151.308 258.642 150.818 261.795 149.838C264.991 148.858 267.825 147.43 270.297 145.555C272.768 143.638 274.814 141.315 276.433 138.588C278.095 135.861 279.246 132.75 279.885 129.256L307.882 129.384C307.158 135.392 305.347 141.188 302.449 146.77C299.594 152.31 295.737 157.274 290.879 161.663C286.064 166.01 280.311 169.462 273.621 172.018C266.973 174.533 259.452 175.79 251.057 175.79C239.381 175.79 228.94 173.148 219.736 167.864C210.574 162.58 203.33 154.93 198.003 144.916C192.719 134.902 190.077 122.778 190.077 108.545C190.077 94.2699 192.761 82.125 198.131 72.1108C203.5 62.0966 210.787 54.4687 219.991 49.2273C229.196 43.9432 239.551 41.3011 251.057 41.3011C258.642 41.3011 265.673 42.3665 272.151 44.4972C278.67 46.6278 284.445 49.7386 289.473 53.8295C294.501 57.8778 298.592 62.8423 301.746 68.723C304.942 74.6037 306.987 81.3366 307.882 88.9219ZM354.448 43.0909V174H327.218V43.0909H354.448ZM439.223 132.196V75.8182H466.453V174H440.309V156.166H439.287C437.071 161.919 433.385 166.543 428.228 170.037C423.115 173.531 416.872 175.278 409.5 175.278C402.937 175.278 397.163 173.787 392.177 170.804C387.191 167.821 383.292 163.581 380.48 158.084C377.71 152.587 376.304 146.003 376.261 138.332V75.8182H403.491V133.474C403.534 139.27 405.089 143.851 408.157 147.217C411.225 150.584 415.338 152.267 420.494 152.267C423.775 152.267 426.843 151.521 429.699 150.03C432.554 148.496 434.855 146.237 436.602 143.254C438.392 140.271 439.265 136.585 439.223 132.196ZM540.457 75.8182V96.2727H481.33V75.8182H540.457ZM494.754 52.2955H521.984V143.83C521.984 146.344 522.367 148.304 523.134 149.71C523.901 151.074 524.967 152.033 526.33 152.587C527.737 153.141 529.356 153.418 531.188 153.418C532.467 153.418 533.745 153.311 535.023 153.098C536.302 152.842 537.282 152.651 537.964 152.523L542.246 172.786C540.883 173.212 538.965 173.702 536.494 174.256C534.022 174.852 531.018 175.214 527.481 175.342C520.918 175.598 515.165 174.724 510.222 172.722C505.322 170.719 501.508 167.608 498.781 163.389C496.053 159.17 494.711 153.844 494.754 147.409V52.2955ZM601.501 175.918C591.444 175.918 582.793 173.787 575.549 169.526C568.347 165.222 562.808 159.256 558.93 151.628C555.094 144 553.177 135.222 553.177 125.293C553.177 115.236 555.116 106.415 558.994 98.8295C562.914 91.2017 568.475 85.2571 575.677 80.9957C582.879 76.6918 591.444 74.5398 601.373 74.5398C609.938 74.5398 617.438 76.0952 623.873 79.206C630.308 82.3168 635.4 86.6847 639.15 92.3097C642.9 97.9347 644.967 104.54 645.35 112.125H619.654C618.93 107.224 617.012 103.283 613.901 100.3C610.833 97.2741 606.806 95.7614 601.82 95.7614C597.602 95.7614 593.915 96.9119 590.762 99.2131C587.651 101.472 585.222 104.774 583.475 109.121C581.728 113.467 580.854 118.73 580.854 124.909C580.854 131.173 581.707 136.5 583.411 140.889C585.158 145.278 587.609 148.624 590.762 150.925C593.915 153.226 597.602 154.376 601.82 154.376C604.931 154.376 607.722 153.737 610.194 152.459C612.708 151.18 614.775 149.327 616.394 146.898C618.056 144.426 619.143 141.464 619.654 138.013H645.35C644.924 145.513 642.879 152.118 639.214 157.828C635.592 163.496 630.585 167.928 624.192 171.124C617.8 174.32 610.237 175.918 601.501 175.918ZM690.015 117.239V174H662.784V43.0909H689.248V93.1406H690.398C692.614 87.3452 696.194 82.8068 701.137 79.5256C706.08 76.2017 712.28 74.5398 719.738 74.5398C726.556 74.5398 732.5 76.0312 737.571 79.0142C742.685 81.9545 746.648 86.1946 749.461 91.7344C752.316 97.2315 753.722 103.815 753.679 111.486V174H726.449V116.344C726.492 110.293 724.958 105.584 721.847 102.217C718.779 98.8509 714.475 97.1676 708.935 97.1676C705.228 97.1676 701.946 97.956 699.091 99.5327C696.279 101.109 694.063 103.411 692.444 106.436C690.867 109.419 690.057 113.02 690.015 117.239Z" fill="black"/>
<path d="M776.378 174V43.0909H803.608V92.3097H804.439C805.632 89.6676 807.358 86.983 809.616 84.2557C811.918 81.4858 814.901 79.1847 818.565 77.3523C822.273 75.4773 826.875 74.5398 832.372 74.5398C839.531 74.5398 846.136 76.4148 852.188 80.1648C858.239 83.8722 863.075 89.4759 866.697 96.9759C870.32 104.433 872.131 113.787 872.131 125.037C872.131 135.989 870.362 145.236 866.825 152.778C863.331 160.278 858.558 165.967 852.507 169.845C846.499 173.68 839.766 175.598 832.308 175.598C827.024 175.598 822.528 174.724 818.821 172.977C815.156 171.23 812.152 169.036 809.808 166.393C807.464 163.709 805.675 161.003 804.439 158.276H803.224V174H776.378ZM803.033 124.909C803.033 130.747 803.842 135.839 805.462 140.186C807.081 144.533 809.425 147.92 812.493 150.349C815.561 152.736 819.29 153.929 823.679 153.929C828.111 153.929 831.861 152.714 834.929 150.286C837.997 147.814 840.32 144.405 841.896 140.058C843.516 135.669 844.325 130.619 844.325 124.909C844.325 119.241 843.537 114.256 841.96 109.952C840.384 105.648 838.061 102.281 834.993 99.8523C831.925 97.4233 828.153 96.2088 823.679 96.2088C819.247 96.2088 815.497 97.3807 812.429 99.7244C809.403 102.068 807.081 105.392 805.462 109.696C803.842 114 803.033 119.071 803.033 124.909ZM890.3 174V75.8182H917.53V174H890.3ZM903.979 63.1619C899.931 63.1619 896.458 61.8196 893.56 59.1349C890.705 56.4077 889.277 53.1477 889.277 49.3551C889.277 45.6051 890.705 42.3878 893.56 39.7031C896.458 36.9758 899.931 35.6122 903.979 35.6122C908.027 35.6122 911.479 36.9758 914.334 39.7031C917.232 42.3878 918.681 45.6051 918.681 49.3551C918.681 53.1477 917.232 56.4077 914.334 59.1349C911.479 61.8196 908.027 63.1619 903.979 63.1619ZM975.522 175.598C968.065 175.598 961.31 173.68 955.259 169.845C949.251 165.967 944.478 160.278 940.941 152.778C937.447 145.236 935.7 135.989 935.7 125.037C935.7 113.787 937.511 104.433 941.133 96.9759C944.755 89.4759 949.57 83.8722 955.579 80.1648C961.63 76.4148 968.256 74.5398 975.458 74.5398C980.955 74.5398 985.536 75.4773 989.201 77.3523C992.908 79.1847 995.891 81.4858 998.15 84.2557C1000.45 86.983 1002.2 89.6676 1003.39 92.3097H1004.22V43.0909H1031.39V174H1004.54V158.276H1003.39C1002.11 161.003 1000.3 163.709 997.958 166.393C995.657 169.036 992.653 171.23 988.945 172.977C985.281 174.724 980.806 175.598 975.522 175.598ZM984.151 153.929C988.54 153.929 992.248 152.736 995.273 150.349C998.342 147.92 1000.69 144.533 1002.3 140.186C1003.97 135.839 1004.8 130.747 1004.8 124.909C1004.8 119.071 1003.99 114 1002.37 109.696C1000.75 105.392 998.406 102.068 995.337 99.7244C992.269 97.3807 988.54 96.2088 984.151 96.2088C979.677 96.2088 975.906 97.4233 972.837 99.8523C969.769 102.281 967.447 105.648 965.87 109.952C964.293 114.256 963.505 119.241 963.505 124.909C963.505 130.619 964.293 135.669 965.87 140.058C967.489 144.405 969.812 147.814 972.837 150.286C975.906 152.714 979.677 153.929 984.151 153.929ZM1135.47 103.815L1110.54 105.349C1110.11 103.219 1109.2 101.301 1107.79 99.5966C1106.38 97.8494 1104.53 96.4645 1102.23 95.4418C1099.97 94.3764 1097.26 93.8438 1094.11 93.8438C1089.89 93.8438 1086.33 94.7386 1083.44 96.5284C1080.54 98.2756 1079.09 100.619 1079.09 103.56C1079.09 105.903 1080.03 107.885 1081.9 109.504C1083.78 111.124 1086.99 112.423 1091.55 113.403L1109.32 116.983C1118.87 118.943 1125.99 122.097 1130.67 126.443C1135.36 130.79 1137.7 136.5 1137.7 143.574C1137.7 150.009 1135.81 155.655 1132.02 160.513C1128.27 165.371 1123.11 169.163 1116.55 171.891C1110.03 174.575 1102.51 175.918 1093.98 175.918C1080.99 175.918 1070.63 173.212 1062.92 167.8C1055.25 162.345 1050.75 154.93 1049.43 145.555L1076.21 144.149C1077.02 148.112 1078.98 151.138 1082.09 153.226C1085.2 155.271 1089.19 156.294 1094.05 156.294C1098.82 156.294 1102.65 155.378 1105.55 153.545C1108.49 151.67 1109.98 149.263 1110.03 146.322C1109.98 143.851 1108.94 141.827 1106.89 140.25C1104.85 138.631 1101.7 137.395 1097.43 136.543L1080.43 133.155C1070.84 131.237 1063.71 127.913 1059.02 123.183C1054.37 118.453 1052.05 112.423 1052.05 105.094C1052.05 98.7869 1053.76 93.3537 1057.16 88.794C1060.62 84.2344 1065.45 80.7188 1071.67 78.2472C1077.94 75.7756 1085.27 74.5398 1093.66 74.5398C1106.06 74.5398 1115.82 77.1605 1122.94 82.402C1130.1 87.6435 1134.27 94.7812 1135.47 103.815Z" fill="#F97316"/>
</svg>
