<svg width="208" height="229" viewBox="0 0 208 229" fill="none" xmlns="http://www.w3.org/2000/svg">
<path d="M12.6829 114.5C12.6829 108.879 17.2256 104.322 22.8293 104.322H104C109.604 104.322 114.146 108.879 114.146 114.5C114.146 120.121 109.604 124.678 104 124.678H22.8293C17.2256 124.678 12.6829 120.121 12.6829 114.5Z" fill="#F97316"/>
<path d="M93.8537 114.5C93.8537 108.879 98.3963 104.322 104 104.322H185.171C190.774 104.322 195.317 108.879 195.317 114.5C195.317 120.121 190.774 124.678 185.171 124.678H104C98.3963 124.678 93.8537 120.121 93.8537 114.5Z" fill="#F97316"/>
<path d="M104 124.678C98.3963 124.678 93.8537 120.121 93.8537 114.5V33.0778C93.8537 27.4568 98.3963 22.9 104 22.9C109.604 22.9 114.146 27.4567 114.146 33.0778V114.5C114.146 120.121 109.604 124.678 104 124.678Z" fill="#F97316"/>
<path d="M104 206.1C98.3963 206.1 93.8537 201.543 93.8537 195.922V114.5C93.8537 108.879 98.3963 104.322 104 104.322C109.604 104.322 114.146 108.879 114.146 114.5V195.922C114.146 201.543 109.604 206.1 104 206.1Z" fill="#F97316"/>
<path d="M22.8293 206.1C17.2256 206.1 12.6829 201.543 12.6829 195.922V114.5C12.6829 108.879 17.2256 104.322 22.8293 104.322C28.4329 104.322 32.9756 108.879 32.9756 114.5V195.922C32.9756 201.543 28.4329 206.1 22.8293 206.1Z" fill="#F97316"/>
<path d="M22.8293 124.678C17.2256 124.678 12.6829 120.121 12.6829 114.5V33.0778C12.6829 27.4568 17.2256 22.9 22.8293 22.9C28.4329 22.9 32.9756 27.4567 32.9756 33.0778V114.5C32.9756 120.121 28.4329 124.678 22.8293 124.678Z" fill="#F97316"/>
<path d="M185.171 124.678C179.567 124.678 175.024 120.121 175.024 114.5V33.0778C175.024 27.4568 179.567 22.9 185.171 22.9C190.774 22.9 195.317 27.4567 195.317 33.0778V114.5C195.317 120.121 190.774 124.678 185.171 124.678Z" fill="#F97316"/>
<path d="M45.6585 206.1C45.6585 218.747 35.4375 229 22.8293 229C10.221 229 0 218.747 0 206.1C0 193.453 10.221 183.2 22.8293 183.2C35.4375 183.2 45.6585 193.453 45.6585 206.1Z" fill="#F97316"/>
<path d="M45.6585 22.9C45.6585 35.5473 35.4375 45.8 22.8293 45.8C10.221 45.8 0 35.5473 0 22.9C0 10.2527 10.221 0 22.8293 0C35.4375 0 45.6585 10.2527 45.6585 22.9Z" fill="#F97316"/>
<path d="M126.829 22.9C126.829 35.5473 116.608 45.8 104 45.8C91.3917 45.8 81.1707 35.5473 81.1707 22.9C81.1707 10.2527 91.3917 0 104 0C116.608 0 126.829 10.2527 126.829 22.9Z" fill="#F97316"/>
<path d="M208 22.9C208 35.5473 197.779 45.8 185.171 45.8C172.562 45.8 162.341 35.5473 162.341 22.9C162.341 10.2527 172.562 0 185.171 0C197.779 0 208 10.2527 208 22.9Z" fill="#F97316"/>
<path d="M126.829 206.1C126.829 218.747 116.608 229 104 229C91.3917 229 81.1707 218.747 81.1707 206.1C81.1707 193.453 91.3917 183.2 104 183.2C116.608 183.2 126.829 193.453 126.829 206.1Z" fill="#F97316"/>
</svg>
